<svg width="32" height="32" viewBox="0 0 32 32" fill="none" xmlns="http://www.w3.org/2000/svg">
<path fill-rule="evenodd" clip-rule="evenodd" d="M2.66675 8.00033C2.66675 6.58584 3.22865 5.22928 4.22885 4.22909C5.22904 3.2289 6.58559 2.66699 8.00008 2.66699H24.0001C25.4146 2.66699 26.7711 3.2289 27.7713 4.22909C28.7715 5.22928 29.3334 6.58584 29.3334 8.00033V24.0003C29.3334 25.4148 28.7715 26.7714 27.7713 27.7716C26.7711 28.7718 25.4146 29.3337 24.0001 29.3337H8.00008C6.58559 29.3337 5.22904 28.7718 4.22885 27.7716C3.22865 26.7714 2.66675 25.4148 2.66675 24.0003V8.00033ZM8.00008 5.33366C7.29284 5.33366 6.61456 5.61461 6.11446 6.11471C5.61437 6.6148 5.33341 7.29308 5.33341 8.00033V24.0003C5.33341 24.7076 5.61437 25.3858 6.11446 25.8859C6.61456 26.386 7.29284 26.667 8.00008 26.667H24.0001C24.7073 26.667 25.3856 26.386 25.8857 25.8859C26.3858 25.3858 26.6667 24.7076 26.6667 24.0003V8.00033C26.6667 7.29308 26.3858 6.6148 25.8857 6.11471C25.3856 5.61461 24.7073 5.33366 24.0001 5.33366H8.00008ZM16.0001 12.0003C14.9392 12.0003 13.9218 12.4218 13.1717 13.1719C12.4215 13.922 12.0001 14.9395 12.0001 16.0003C12.0001 17.0612 12.4215 18.0786 13.1717 18.8288C13.9218 19.5789 14.9392 20.0003 16.0001 20.0003C17.0609 20.0003 18.0784 19.5789 18.8285 18.8288C19.5787 18.0786 20.0001 17.0612 20.0001 16.0003C20.0001 14.9395 19.5787 13.922 18.8285 13.1719C18.0784 12.4218 17.0609 12.0003 16.0001 12.0003ZM9.33342 16.0003C9.33342 14.2322 10.0358 12.5365 11.286 11.2863C12.5363 10.036 14.232 9.33366 16.0001 9.33366C17.7682 9.33366 19.4639 10.036 20.7141 11.2863C21.9644 12.5365 22.6667 14.2322 22.6667 16.0003C22.6667 17.7684 21.9644 19.4641 20.7141 20.7144C19.4639 21.9646 17.7682 22.667 16.0001 22.667C14.232 22.667 12.5363 21.9646 11.286 20.7144C10.0358 19.4641 9.33342 17.7684 9.33342 16.0003ZM23.3334 10.667C23.8638 10.667 24.3726 10.4563 24.7476 10.0812C25.1227 9.70613 25.3334 9.19743 25.3334 8.66699C25.3334 8.13656 25.1227 7.62785 24.7476 7.25278C24.3726 6.87771 23.8638 6.66699 23.3334 6.66699C22.803 6.66699 22.2943 6.87771 21.9192 7.25278C21.5441 7.62785 21.3334 8.13656 21.3334 8.66699C21.3334 9.19743 21.5441 9.70613 21.9192 10.0812C22.2943 10.4563 22.803 10.667 23.3334 10.667Z" fill="#F5F5F5"/>
</svg>
